<svg xmlns="http://www.w3.org/2000/svg" viewBox="0 0 760 256" role="img" aria-labelledby="title desc">
  <title id="title">Conectadois</title>
  <desc id="desc">Logotipo Conectadois com símbolo e assinatura Descubram mais, conectem-se mais.</desc>
  <g transform="translate(8 8) scale(.94)">
    <circle cx="128" cy="128" r="116" fill="#3D1F3D" stroke="#D4A94E" stroke-width="8"/>
    <path d="M128 201C110 178 48 139 48 88C48 49 94 35 128 72C162 35 208 49 208 88C208 139 146 178 128 201Z" fill="none" stroke="#E8C39E" stroke-width="15" stroke-linecap="round" stroke-linejoin="round"/>
    <path d="M128 177C119 165 94 148 94 126C94 108 116 101 128 117C140 101 162 108 162 126C162 148 137 165 128 177Z" fill="#D4A94E"/>
    <path d="M83 82V112M68 97H98" fill="none" stroke="#D4A94E" stroke-width="10" stroke-linecap="round"/>
    <circle cx="169" cy="85" r="7" fill="#D4A94E"/><circle cx="185" cy="101" r="7" fill="#D4A94E"/>
    <circle cx="153" cy="101" r="7" fill="#D4A94E"/><circle cx="169" cy="117" r="7" fill="#D4A94E"/>
  </g>
  <text x="282" y="130" fill="#3D1F3D" font-family="Fraunces, Georgia, serif" font-size="72" font-weight="600">conectadois</text>
  <text x="286" y="171" fill="#6F5A6B" font-family="Inter, Arial, sans-serif" font-size="18" font-weight="600" letter-spacing="1.3">DESCUBRAM MAIS. CONECTEM-SE MAIS.</text>
</svg>
